<svg xmlns="http://www.w3.org/2000/svg" version="1.1" xmlns:xlink="http://www.w3.org/1999/xlink" viewBox="0 0 11.460682090641154 3.18705538165678"><g transform="matrix(1,0,0,1,3.10421626104058,1.0640276908283899)"><g clip-path="url(#SvgjsClipPath1001)"><g clip-path="url(#SvgjsClipPath1000bd6cc7a7-38c8-4272-a3a3-4d1567da608e)"><path d=" M -1.3089212503538175 1.1328414286794666 L -0.7138283967840966 0.10212817366176075 L -1.4531398157508677 0.2736985359444576 L -0.959612026141138 -0.5811885702121905 L -0.4001434534801711 0.38803095963953216 L -0.6754306819254001 1.4154447846133404 C -0.7210059564916556 1.5361200918177973 -0.8296781814936529 1.6216192786236894 -0.9576896905711263 1.6375154720167027 C -1.0857011996485966 1.6534116654097164 -1.2119845864699108 1.5970887602618808 -1.285690921538405 1.491225586346442 C -1.359397256606899 1.3853624124310033 -1.368396370367558 1.247381329006946 -1.3090647038339887 1.1328414286794661 Z" fill="#bab9b4" transform="matrix(1,0,0,1,0,0)" fill-rule="evenodd"></path></g><g clip-path="url(#SvgjsClipPath1000bd6cc7a7-38c8-4272-a3a3-4d1567da608e)"><path d=" M -1.7125037078972842 -0.07384142867946675 L -2.307548743640284 0.9568718263382393 L -1.568237324673513 0.7853492818822657 L -2.0618129321099667 1.6401885702121906 L -2.621281504770934 0.6709690403604679 L -2.34608991197915 -0.35644478461334017 C -2.300451960755682 -0.4770060650693173 -2.1918152125714974 -0.5623894418290665 -2.0638838592726425 -0.5782454747561362 C -1.9359525059737897 -0.5941015076832059 -1.8097580037813712 -0.537823521762074 -1.7360679688650427 -0.43205195804530483 C -1.6623779339487141 -0.32628039432853556 -1.6533067440846074 -0.18840371900823144 -1.7125037078972842 -0.07388924650618944 Z" fill="#404040" transform="matrix(1,0,0,1,0,0)" fill-rule="evenodd"></path></g></g><g><path d=" M 0.1875 1.059 Q 0.1485 1.059 0.123 1.0327499999999998 Q 0.0975 1.0065 0.0975 0.9674999999999999 L 0.0975 0.348 Q 0.0975 0.30899999999999994 0.123 0.28274999999999995 Q 0.1485 0.25649999999999995 0.1875 0.25649999999999995 Q 0.2265 0.25649999999999995 0.252 0.28274999999999995 Q 0.2775 0.30899999999999994 0.2775 0.348 L 0.2775 0.4889999999999999 L 0.267 0.38849999999999996 Q 0.28350000000000003 0.3524999999999999 0.30975 0.32474999999999987 Q 0.336 0.29699999999999993 0.369 0.2782499999999999 Q 0.402 0.25949999999999995 0.4395 0.25049999999999994 Q 0.47700000000000004 0.24149999999999994 0.5145 0.24149999999999994 Q 0.5595 0.24149999999999994 0.59025 0.2669999999999999 Q 0.621 0.29249999999999987 0.621 0.32699999999999996 Q 0.621 0.37649999999999995 0.5955 0.3982499999999999 Q 0.5700000000000001 0.41999999999999993 0.54 0.41999999999999993 Q 0.5115000000000001 0.41999999999999993 0.48825 0.4095 Q 0.465 0.3989999999999999 0.435 0.3989999999999999 Q 0.40800000000000003 0.3989999999999999 0.38025000000000003 0.41174999999999995 Q 0.3525 0.4244999999999999 0.32925 0.4514999999999999 Q 0.306 0.4784999999999999 0.29175 0.5182499999999999 Q 0.2775 0.5579999999999999 0.2775 0.6119999999999999 L 0.2775 0.9674999999999999 Q 0.2775 1.0065 0.252 1.0327499999999998 Q 0.2265 1.059 0.1875 1.059 M 1.086072509765625 1.0739999999999998 Q 0.958572509765625 1.0739999999999998 0.864822509765625 1.02075 Q 0.771072509765625 0.9674999999999999 0.720822509765625 0.8759999999999999 Q 0.670572509765625 0.7845 0.670572509765625 0.6689999999999999 Q 0.670572509765625 0.5339999999999999 0.725322509765625 0.43875 Q 0.780072509765625 0.3434999999999999 0.868572509765625 0.29249999999999987 Q 0.957072509765625 0.24149999999999994 1.056072509765625 0.24149999999999994 Q 1.132572509765625 0.24149999999999994 1.2008225097656249 0.2729999999999999 Q 1.269072509765625 0.3044999999999999 1.321572509765625 0.35924999999999996 Q 1.374072509765625 0.4139999999999999 1.404822509765625 0.4859999999999999 Q 1.435572509765625 0.5579999999999999 1.435572509765625 0.639 Q 1.434072509765625 0.6749999999999999 1.4070725097656251 0.6975 Q 1.380072509765625 0.72 1.344072509765625 0.72 L 0.771072509765625 0.72 L 0.726072509765625 0.57 L 1.276572509765625 0.57 L 1.2435725097656252 0.5999999999999999 L 1.2435725097656252 0.5594999999999999 Q 1.240572509765625 0.5159999999999999 1.212822509765625 0.48149999999999993 Q 1.1850725097656252 0.44699999999999995 1.143822509765625 0.42674999999999996 Q 1.102572509765625 0.4065 1.056072509765625 0.4065 Q 1.011072509765625 0.4065 0.972072509765625 0.4185 Q 0.933072509765625 0.4304999999999999 0.904572509765625 0.45899999999999996 Q 0.876072509765625 0.48749999999999993 0.859572509765625 0.5355 Q 0.843072509765625 0.5834999999999999 0.843072509765625 0.6569999999999999 Q 0.843072509765625 0.738 0.876822509765625 0.7942499999999999 Q 0.910572509765625 0.8504999999999999 0.963822509765625 0.8797499999999999 Q 1.017072509765625 0.9089999999999999 1.077072509765625 0.9089999999999999 Q 1.132572509765625 0.9089999999999999 1.1655725097656249 0.8999999999999999 Q 1.198572509765625 0.8909999999999999 1.2188225097656251 0.87825 Q 1.239072509765625 0.8654999999999999 1.2555725097656252 0.8564999999999999 Q 1.2825725097656249 0.843 1.306572509765625 0.843 Q 1.339572509765625 0.843 1.361322509765625 0.8654999999999999 Q 1.3830725097656251 0.8879999999999999 1.3830725097656251 0.9179999999999999 Q 1.3830725097656251 0.9584999999999999 1.3410725097656249 0.9914999999999999 Q 1.3020725097656252 1.0245 1.2315725097656252 1.04925 Q 1.1610725097656251 1.0739999999999998 1.086072509765625 1.0739999999999998 M 1.98609814453125 0.24449999999999994 L 1.66209814453125 1.0065 Q 1.65159814453125 1.035 1.62984814453125 1.0507499999999999 Q 1.60809814453125 1.0665 1.58259814453125 1.0665 Q 1.54209814453125 1.0665 1.52259814453125 1.044 Q 1.50309814453125 1.0214999999999999 1.50309814453125 0.9884999999999999 Q 1.50309814453125 0.975 1.50759814453125 0.96 L 1.88109814453125 0.06299999999999994 Q 1.89309814453125 0.03299999999999992 1.91784814453125 0.01649999999999996 Q 1.94259814453125 0 1.97109814453125 0.0029999999999998916 Q 1.99809814453125 0.0029999999999998916 2.02134814453125 0.018749999999999822 Q 2.0445981445312498 0.034499999999999975 2.05509814453125 0.06299999999999994 L 2.42409814453125 0.942 Q 2.4315981445312502 0.9614999999999999 2.4315981445312502 0.978 Q 2.4315981445312502 1.0185 2.40534814453125 1.0425 Q 2.37909814453125 1.0665 2.34759814453125 1.0665 Q 2.32059814453125 1.0665 2.29884814453125 1.05 Q 2.27709814453125 1.0334999999999999 2.26509814453125 1.005 L 1.94259814453125 0.25349999999999995 L 1.98609814453125 0.24449999999999994 M 1.70859814453125 0.8234999999999999 L 1.79109814453125 0.6509999999999999 L 2.19609814453125 0.6509999999999999 L 2.22459814453125 0.8234999999999999 L 1.70859814453125 0.8234999999999999 M 3.009063720703125 0.008999999999999897 Q 3.117063720703125 0.008999999999999897 3.201063720703125 0.04949999999999988 Q 3.285063720703125 0.08999999999999997 3.342813720703125 0.16274999999999995 Q 3.400563720703125 0.23549999999999993 3.429813720703125 0.3307499999999999 Q 3.459063720703125 0.42599999999999993 3.459063720703125 0.5339999999999999 Q 3.459063720703125 0.6795 3.406563720703125 0.79875 Q 3.3540637207031248 0.9179999999999999 3.254313720703125 0.9884999999999999 Q 3.154563720703125 1.059 3.009063720703125 1.059 L 2.650563720703125 1.059 Q 2.611563720703125 1.059 2.585313720703125 1.0327499999999998 Q 2.559063720703125 1.0065 2.559063720703125 0.9674999999999999 L 2.559063720703125 0.10049999999999992 Q 2.559063720703125 0.06149999999999989 2.585313720703125 0.035250000000000004 Q 2.611563720703125 0.008999999999999897 2.650563720703125 0.008999999999999897 L 3.009063720703125 0.008999999999999897 M 2.994063720703125 0.8865 Q 3.088563720703125 0.8865 3.148563720703125 0.83775 Q 3.208563720703125 0.7889999999999999 3.236313720703125 0.70875 Q 3.264063720703125 0.6285 3.264063720703125 0.5339999999999999 Q 3.264063720703125 0.4634999999999999 3.248313720703125 0.39974999999999994 Q 3.232563720703125 0.33599999999999997 3.199563720703125 0.2872499999999999 Q 3.1665637207031248 0.23849999999999993 3.115563720703125 0.20999999999999996 Q 3.064563720703125 0.18149999999999988 2.994063720703125 0.18149999999999988 L 2.731563720703125 0.18149999999999988 L 2.746563720703125 0.16799999999999993 L 2.746563720703125 0.9029999999999999 L 2.737563720703125 0.8865 L 2.994063720703125 0.8865 M 4.48514794921875 0.008999999999999897 Q 4.56314794921875 0.008999999999999897 4.63139794921875 0.053999999999999826 Q 4.69964794921875 0.09899999999999998 4.74164794921875 0.17549999999999988 Q 4.78364794921875 0.2519999999999999 4.78364794921875 0.3464999999999999 Q 4.78364794921875 0.4394999999999999 4.74164794921875 0.5159999999999999 Q 4.69964794921875 0.5924999999999999 4.63139794921875 0.63825 Q 4.56314794921875 0.6839999999999999 4.48514794921875 0.6839999999999999 L 4.20914794921875 0.6839999999999999 L 4.22414794921875 0.6569999999999999 L 4.22414794921875 0.9674999999999999 Q 4.22414794921875 1.0065 4.20014794921875 1.0327499999999998 Q 4.17614794921875 1.059 4.13714794921875 1.059 Q 4.09964794921875 1.059 4.07564794921875 1.0327499999999998 Q 4.05164794921875 1.0065 4.05164794921875 0.9674999999999999 L 4.05164794921875 0.10049999999999992 Q 4.05164794921875 0.06149999999999989 4.07789794921875 0.035250000000000004 Q 4.10414794921875 0.008999999999999897 4.14314794921875 0.008999999999999897 L 4.48514794921875 0.008999999999999897 M 4.48514794921875 0.5129999999999999 Q 4.5136479492187505 0.5129999999999999 4.54064794921875 0.4889999999999999 Q 4.56764794921875 0.46499999999999997 4.58564794921875 0.42674999999999996 Q 4.60364794921875 0.38849999999999996 4.60364794921875 0.3464999999999999 Q 4.60364794921875 0.30299999999999994 4.58564794921875 0.26549999999999996 Q 4.56764794921875 0.22799999999999987 4.54064794921875 0.20474999999999988 Q 4.5136479492187505 0.18149999999999988 4.48514794921875 0.18149999999999988 L 4.20614794921875 0.18149999999999988 L 4.22414794921875 0.15449999999999997 L 4.22414794921875 0.5369999999999999 L 4.20764794921875 0.5129999999999999 L 4.48514794921875 0.5129999999999999 M 5.53518896484375 0.8835 Q 5.57418896484375 0.8835 5.60043896484375 0.90825 Q 5.62668896484375 0.9329999999999999 5.62668896484375 0.972 Q 5.62668896484375 1.0094999999999998 5.60043896484375 1.03425 Q 5.57418896484375 1.059 5.53518896484375 1.059 L 5.04768896484375 1.059 Q 5.00868896484375 1.059 4.98243896484375 1.0327499999999998 Q 4.95618896484375 1.0065 4.95618896484375 0.9674999999999999 L 4.95618896484375 0.10049999999999992 Q 4.95618896484375 0.06149999999999989 4.98318896484375 0.035250000000000004 Q 5.01018896484375 0.008999999999999897 5.05218896484375 0.008999999999999897 Q 5.08818896484375 0.008999999999999897 5.11593896484375 0.035250000000000004 Q 5.14368896484375 0.06149999999999989 5.14368896484375 0.10049999999999992 L 5.14368896484375 0.9089999999999999 L 5.11068896484375 0.8835 L 5.53518896484375 0.8835 M 6.18470654296875 0.24449999999999994 L 5.86070654296875 1.0065 Q 5.85020654296875 1.035 5.82845654296875 1.0507499999999999 Q 5.80670654296875 1.0665 5.78120654296875 1.0665 Q 5.74070654296875 1.0665 5.72120654296875 1.044 Q 5.70170654296875 1.0214999999999999 5.70170654296875 0.9884999999999999 Q 5.70170654296875 0.975 5.70620654296875 0.96 L 6.07970654296875 0.06299999999999994 Q 6.09170654296875 0.03299999999999992 6.11645654296875 0.01649999999999996 Q 6.14120654296875 0 6.16970654296875 0.0029999999999998916 Q 6.19670654296875 0.0029999999999998916 6.21995654296875 0.018749999999999822 Q 6.24320654296875 0.034499999999999975 6.25370654296875 0.06299999999999994 L 6.62270654296875 0.942 Q 6.63020654296875 0.9614999999999999 6.63020654296875 0.978 Q 6.63020654296875 1.0185 6.60395654296875 1.0425 Q 6.57770654296875 1.0665 6.54620654296875 1.0665 Q 6.51920654296875 1.0665 6.49745654296875 1.05 Q 6.47570654296875 1.0334999999999999 6.46370654296875 1.005 L 6.14120654296875 0.25349999999999995 L 6.18470654296875 0.24449999999999994 M 5.90720654296875 0.8234999999999999 L 5.98970654296875 0.6509999999999999 L 6.39470654296875 0.6509999999999999 L 6.42320654296875 0.8234999999999999 L 5.90720654296875 0.8234999999999999 M 6.852172119140625 0.00749999999999984 Q 6.873172119140625 0.00749999999999984 6.896422119140625 0.018749999999999822 Q 6.919672119140625 0.030000000000000027 6.931672119140625 0.04799999999999982 L 7.296172119140625 0.609 L 7.2211721191406255 0.6059999999999999 L 7.5946721191406255 0.04799999999999982 Q 7.623172119140625 0.00749999999999984 7.668172119140625 0.00749999999999984 Q 7.704172119140625 0.00749999999999984 7.732672119140625 0.03299999999999992 Q 7.761172119140625 0.058499999999999996 7.761172119140625 0.09899999999999998 L 7.761172119140625 0.9674999999999999 Q 7.761172119140625 1.0065 7.7356721191406255 1.0327499999999998 Q 7.7101721191406245 1.059 7.668172119140625 1.059 Q 7.626172119140625 1.059 7.599922119140625 1.0327499999999998 Q 7.573672119140625 1.0065 7.573672119140625 0.9674999999999999 L 7.573672119140625 0.2609999999999999 L 7.632172119140625 0.27449999999999997 L 7.326172119140625 0.7409999999999999 Q 7.312672119140625 0.7575 7.292422119140625 0.7695 Q 7.272172119140625 0.7814999999999999 7.251172119140625 0.7799999999999999 Q 7.231672119140625 0.7814999999999999 7.211422119140625 0.7695 Q 7.191172119140625 0.7575 7.177672119140625 0.7409999999999999 L 6.891172119140625 0.2879999999999999 L 6.930172119140625 0.2084999999999999 L 6.930172119140625 0.9674999999999999 Q 6.930172119140625 1.0065 6.906172119140625 1.0327499999999998 Q 6.882172119140625 1.059 6.843172119140625 1.059 Q 6.805672119140625 1.059 6.781672119140625 1.0327499999999998 Q 6.757672119140625 1.0065 6.757672119140625 0.9674999999999999 L 6.757672119140625 0.09899999999999998 Q 6.757672119140625 0.06149999999999989 6.785422119140625 0.034499999999999975 Q 6.813172119140625 0.00749999999999984 6.852172119140625 0.00749999999999984" fill="#404040" fill-rule="nonzero"></path></g><g></g></g><defs><clipPath id="SvgjsClipPath1001"><path d=" M -2.621377140424381 -0.5811885702121905 h 2.221377140424381 v 2.221377140424381 h -2.221377140424381 Z"></path></clipPath><clipPath id="SvgjsClipPath1000bd6cc7a7-38c8-4272-a3a3-4d1567da608e"><path d=" M -2.621377140424381 -0.5811885702121905 L -0.3999999999999999 -0.5811885702121905 L -0.3999999999999999 1.6401885702121906 L -2.621377140424381 1.6401885702121906 Z"></path></clipPath></defs></svg>