<svg xmlns="http://www.w3.org/2000/svg" version="1.1" xmlns:xlink="http://www.w3.org/1999/xlink" xmlns:svgjs="http://svgjs.dev/svgjs" viewBox="0 0 8.677132660395738 3.0855454407177945"><g transform="matrix(0.7589082735104521,0,0,0.7589082735104521,1.4179421857691294,0.9407042548383371)"><g clip-path="url(#SvgjsClipPath18094)"><g clip-path="url(#ae9c039cb-9ff3-4f06-8450-417e0089f96309db0e1d-0c1a-4611-b057-490974e5f4f2)"><path d=" M 3.1938314619233377 0.16698284434565064 C 3.1800018513233224 0.1396911875469498 3.1751775685558754 0.10532391602265978 3.1767397172615253 0.07876738802661754 C 3.1810585989771445 0.004335596757433335 3.2224095941266913 -0.0391748392499231 3.2864117455081563 -0.07459885842803479 C 3.360659754576676 -0.11572012582675076 3.477729016400059 -0.09495273715164501 3.4989558605768267 -0.07900963124398644 C 3.4989558605768267 -0.07900963124398644 3.4989558605768267 -0.10685263464468128 3.4843451756239867 -0.11879847768788368 C 3.4843451756239867 -0.11879847768788368 3.518804338248609 -0.09095547428718886 3.5214691801582463 -0.07106105106524022 C 3.5214691801582463 -0.06444489184131277 3.5758227660048174 -0.07106105106524022 3.5758227660048174 -0.07106105106524022 L 3.5391582169722193 -0.04808827598215873 C 3.5391582169722193 -0.04808827598215873 3.5851037671383823 -0.023369569992762962 3.56920660678089 0.10895361448578672 C 3.56920660678089 0.1673044631968138 3.5625904475569623 0.19381504564268986 3.577155186959636 0.2017636258214361 L 3.565209343916434 0.2044284677310736 C 3.565209343916434 0.2044284677310736 3.5758227660048174 0.23489036749123965 3.595717189226766 0.2521199488035508 C 3.614279191493896 0.25611721166800705 3.6394573529849534 0.26539821280157194 3.730934943365784 0.44302370974395844 C 3.8223665881964486 0.6206032611361788 3.8210341672416295 0.7809991767662541 3.7998532686150286 0.8698119252374474 C 3.7958560057505726 0.8910387694142148 3.802518110524666 0.9188817728149095 3.807801848793775 0.9321140912627643 C 3.8091342697485935 0.9453923552607855 3.7879074255718264 0.9413950923963295 3.781291266347899 0.952008514484713 C 3.7746751071239713 0.962621936573097 3.7746751071239713 1.0342051037319788 3.538698761470558 1.0288754199127037 C 3.4591670141329294 1.023591681643595 3.3730191075713734 0.9427275133511481 3.3292789438131862 0.8751416090567223 C 3.2882036219646364 0.8115070220765863 3.277590199876253 0.7796667558114352 3.2656443568330507 0.7770478594519639 C 3.253698513789848 0.7743830175423265 3.255076880294833 0.7531561733655592 3.2524120383851955 0.7439211177821605 C 3.249747196475558 0.7346401166485954 3.2444634582064493 0.7385914339628856 3.232517615163247 0.745207593186813 C 3.2205717721200444 0.7518696979609067 3.231185194208428 0.7346401166485954 3.2285203522987906 0.7240266945602118 C 3.2259014559393195 0.714745693426647 3.1914422933146973 0.7889477569450003 3.1225239680654524 0.8393500254772812 C 3.0548921182208604 0.8897063484593959 3.066837961264063 0.9029386669072508 3.0508948553564044 0.9268303529936557 C 3.038183796603617 0.9456375638583143 3.031281538858511 0.9677663300087112 3.0310463776846217 0.9904649399737917 C 3.0336652740440933 1.0063621003312841 3.0111519544626733 1.0050296793764653 2.999206111419471 0.9997459411073566 C 2.997873690464652 1.0129782595552115 3.0005385323742897 1.0302078408675228 2.932952628079864 1.0302078408675228 C 2.8613694609209817 1.0235916816435955 2.893209727186133 1.0129782595552115 2.7752215543594256 1.0275429989578853 C 2.755327131137477 1.0315402618223415 2.6784602257094865 1.0421536839107253 2.6810791220689576 1.007694521286103 C 2.6810791220689576 1.007694521286103 2.640003800220408 0.9732353586614806 2.6784602257094865 0.9639543575279155 C 2.7168707056483985 0.9546733563943506 2.7182031266032176 0.9639543575279155 2.7182031266032176 0.9639543575279155 C 2.743381288094275 0.9506760935298944 2.8361912994299243 0.8963225076833234 2.8361912994299243 0.8963225076833234 C 2.822913035431903 0.8963225076833234 2.828242719251178 0.8817577682806497 2.837523720384743 0.8711443461922663 C 2.846804721518308 0.8605309241038825 2.9369039453941537 0.7956098617190941 2.9647469487948483 0.7690992792732179 C 2.9925899521955435 0.7425886968273421 3.0323787986394404 0.6935188492498797 3.0323787986394404 0.6935188492498797 L 2.9780252127928697 0.6206032611361788 C 2.9780252127928697 0.6206032611361788 2.9554659476612835 0.6193167857315265 2.952801105751646 0.5940926786903029 C 2.9422336292134283 0.5795279392876291 2.931620207125045 0.5662956208397741 2.9356174699895012 0.5424039347533693 C 2.9157230467675523 0.5079447721287471 2.822913035431903 0.3303192751863606 2.822913035431903 0.3303192751863606 L 2.8627018818758003 0.27467921393513717 L 2.8852152014572203 0.3091383765597594 L 2.931620207125045 0.3024762717856657 L 3.0310463776846217 0.4854314525473272 C 3.0310463776846217 0.4854314525473272 3.0721216995331715 0.468201871235016 3.085399963531193 0.49204761177125467 C 3.098632281979048 0.5119420349932032 3.11452944233654 0.517225773262312 3.1264752853797426 0.5158933523074933 C 3.138421128422945 0.5145609313526746 3.1847801885406035 0.4509722899227049 3.2378013534323555 0.4535911862821762 C 3.290822518324108 0.45625602819181366 3.3517922633946062 0.4960448746357109 3.3823001087049387 0.5317905126649857 C 3.3968648481076125 0.5212230361267681 3.4101431121056334 0.5079447721287471 3.4101431121056334 0.5079447721287471 C 3.4101431121056334 0.5079447721287471 3.3929135307933223 0.43769402592468365 3.4287051143727636 0.3992376004356052 C 3.451218433954183 0.36611085876580174 3.477729016400059 0.3170869567385056 3.4366536945515094 0.31970585309797694 C 3.407478270195996 0.3462623810940192 3.378992029092975 0.3747486221970404 3.3365842862896065 0.32898685423154184 C 3.3259708642012225 0.3283436165292156 3.323995205544078 0.3210382740527956 3.3253276264988965 0.31773019444083195 C 3.314714204410513 0.3184193776933244 3.3074088619340927 0.3117572729192307 3.308741282888912 0.29324121620226706 C 3.302079178114818 0.2958601125617384 3.2842063591001804 0.30247627178566583 3.2749253579666155 0.28726829468066584 C 3.2656443568330507 0.2720143720254997 3.2868712010098178 0.27798729354710083 3.277590199876253 0.2381984471032037 C 3.2696416196975067 0.2137554144148049 3.2570984845021442 0.21302028561214625 3.2570984845021442 0.21302028561214625 C 3.2269582035931412 0.21136624580616414 3.206604324869531 0.1921610058367081 3.1938314619233377 0.16698284434565064" fill="#e8a941" transform="matrix(1,0,0,1,0,0)" fill-rule="nonzero"></path></g><g clip-path="url(#ae9c039cb-9ff3-4f06-8450-417e0089f96309db0e1d-0c1a-4611-b057-490974e5f4f2)"><path d=" M 3.7958560057505726 0.7612885357449699 L 4.02388377122524 0.7612885357449699 L 4.02388377122524 -0.22134894565875973 C 4.02388377122524 -0.22286514881424327 4.023699989024575 -0.2242894608693941 4.023516206823911 -0.22571377292454517 C 4.023699989024575 -0.22718403052986236 4.02388377122524 -0.22865428813517957 4.02388377122524 -0.2301704912906631 C 4.02388377122524 -0.24496495844416763 4.01418926014018 -0.2569567470375362 4.002197471546811 -0.2569567470375362 C 3.9976289708266464 -0.25690066665812605 3.993236549233581 -0.25518615265339756 3.989838118552113 -0.252132464270089 L 3.829901658423699 -0.252132464270089 C 3.826503227742232 -0.25518615265339756 3.8221108061491655 -0.25690066665812605 3.8175423054290016 -0.2569567470375362 C 3.805550516835633 -0.2569567470375362 3.7958560057505726 -0.24496495844416763 3.7958560057505726 -0.2301704912906631 C 3.7958560057505726 -0.22865428813517957 3.796039787951237 -0.22718403052986236 3.796223570151902 -0.22571377292454517 C 3.796039787951237 -0.2242894608693941 3.7958560057505726 -0.22286514881424327 3.7958560057505726 -0.22134894565875973 Z" fill="#e8a941" transform="matrix(1,0,0,1,0,0)" fill-rule="nonzero"></path></g><g clip-path="url(#SvgjsClipPath1809209db0e1d-0c1a-4611-b057-490974e5f4f2)"><path d=" M 4.02388377122524 0.782974835423399 L 3.795856005750572 0.782974835423399 L 3.795856005750572 0.8408662286327644 L 4.02388377122524 0.8408662286327644 Z" fill="#e8a941" transform="matrix(1,0,0,1,0,0)" fill-rule="nonzero"></path></g><g clip-path="url(#be9c039cb-9ff3-4f06-8450-417e0089f96309db0e1d-0c1a-4611-b057-490974e5f4f2)"><path d=" M 3.7958560057505726 0.8626444194115257 L 3.7958560057505726 0.9983675746023712 C 3.7958560057505726 1.0152755370635194 3.8070667199911163 1.0291510932137005 3.8207125483904667 1.0291510932137005 L 3.9990272285853457 1.0291510932137005 C 4.012673056984696 1.0291510932137005 4.02388377122524 1.0152755370635194 4.02388377122524 0.9983675746023712 L 4.02388377122524 0.8626444194115257 Z" fill="#e8a941" transform="matrix(1,0,0,1,0,0)" fill-rule="nonzero"></path></g><g clip-path="url(#be9c039cb-9ff3-4f06-8450-417e0089f96309db0e1d-0c1a-4611-b057-490974e5f4f2)"><path d=" M 4.063718563219304 0.7612885357449699 L 4.2917463286939705 0.7612885357449699 L 4.2917463286939705 -0.22134894565875973 C 4.2917463286939705 -0.22286514881424327 4.2915625464933065 -0.2242894608693941 4.2913787642926415 -0.22571377292454517 C 4.2915625464933065 -0.22718403052986236 4.2917463286939705 -0.22865428813517957 4.2917463286939705 -0.2301704912906631 C 4.2917463286939705 -0.24496495844416763 4.28205181760891 -0.2569567470375362 4.270060029015542 -0.2569567470375362 C 4.265491528295377 -0.25690066665812605 4.261099106702312 -0.25518615265339756 4.257700676020844 -0.252132464270089 L 4.09776421589243 -0.252132464270089 C 4.094365785210963 -0.25518615265339756 4.089973363617896 -0.25690066665812605 4.085404862897732 -0.2569567470375362 C 4.073413074304364 -0.2569567470375362 4.063718563219304 -0.24496495844416763 4.063718563219304 -0.2301704912906631 C 4.063718563219304 -0.22865428813517957 4.063856399869802 -0.22718403052986236 4.064086127620633 -0.22571377292454517 C 4.063902345419968 -0.2242894608693941 4.063718563219304 -0.22286514881424327 4.063718563219304 -0.22134894565875973 Z" fill="#e8a941" transform="matrix(1,0,0,1,0,0)" fill-rule="nonzero"></path></g><g clip-path="url(#SvgjsClipPath1809209db0e1d-0c1a-4611-b057-490974e5f4f2)"><path d=" M 4.291700383143804 0.782974835423399 L 4.063672617669137 0.782974835423399 L 4.063672617669137 0.8408662286327644 L 4.291700383143804 0.8408662286327644 Z" fill="#e8a941" transform="matrix(1,0,0,1,0,0)" fill-rule="nonzero"></path></g><g clip-path="url(#ce9c039cb-9ff3-4f06-8450-417e0089f96309db0e1d-0c1a-4611-b057-490974e5f4f2)"><path d=" M 4.063718563219304 0.8626444194115257 L 4.063718563219304 0.9983675746023712 C 4.063718563219304 1.0152755370635194 4.074883331909681 1.0291510932137005 4.0885751058591975 1.0291510932137005 L 4.266889786054076 1.0291510932137005 C 4.280535614453427 1.0291510932137005 4.2917463286939705 1.0152755370635194 4.2917463286939705 0.9983675746023712 L 4.2917463286939705 0.8626444194115257 Z" fill="#e8a941" transform="matrix(1,0,0,1,0,0)" fill-rule="nonzero"></path></g><g clip-path="url(#ce9c039cb-9ff3-4f06-8450-417e0089f96309db0e1d-0c1a-4611-b057-490974e5f4f2)"><path d=" M 4.574127680015208 0.7780586615556193 L 4.794160919760964 0.718237555239275 L 4.536452328878955 -0.2299867090899985 C 4.536084764477626 -0.23145696669531587 4.535533417875632 -0.23278938765013463 4.534982071273638 -0.23412180860495316 C 4.534813486881895 -0.2355950143946854 4.534537072015457 -0.237053870634219 4.534155051370647 -0.2384866358707386 C 4.53029562515669 -0.2527757019724154 4.517752489961326 -0.26182697535514954 4.50622015686962 -0.25870267794385055 C 4.50181897658123 -0.2574369186843529 4.498029611007835 -0.2546112279766065 4.49556078923107 -0.2507540977651045 L 4.341229686222928 -0.20880581046339747 C 4.337142460232741 -0.2108820169030692 4.332440657959573 -0.21140443937786568 4.327997367775073 -0.21027606806871485 C 4.316465034683366 -0.20710582510724948 4.310262385410934 -0.19295459565607118 4.314121811624892 -0.17866552955439458 C 4.31455118641465 -0.17726046416170382 4.315057348572781 -0.17588002191225727 4.315638014780375 -0.17453043003944013 C 4.3158050851464616 -0.17307548322227237 4.316065986710325 -0.17163285104561143 4.3164190891332 -0.17021154832382046 Z" fill="#e8a941" transform="matrix(1,0,0,1,0,0)" fill-rule="nonzero"></path></g><g clip-path="url(#SvgjsClipPath1809209db0e1d-0c1a-4611-b057-490974e5f4f2)"><path d=" M 4.815060041319834 0.7950923813222011 L 4.799852064214833 0.7392225923201468 L 4.579818824469078 0.798997753086325 L 4.595026801574078 0.8549134876385456 Z" fill="#e8a941" transform="matrix(1,0,0,1,0,0)" fill-rule="nonzero"></path></g><g clip-path="url(#de9c039cb-9ff3-4f06-8450-417e0089f96309db0e1d-0c1a-4611-b057-490974e5f4f2)"><path d=" M 4.600730153561417 0.8758307923092143 L 4.636337954940194 1.0067756102827792 C 4.640748727756145 1.0231322261419333 4.65517563050832 1.0335618660296524 4.668407948956175 1.0299781131166916 L 4.840474034328456 0.9832055430475375 C 4.853660407226145 0.9796217901345767 4.8607819675019 0.9633111198255888 4.8563711946859485 0.9470004495166011 L 4.820763393307172 0.81600968599287 Z" fill="#e8a941" transform="matrix(1,0,0,1,0,0)" fill-rule="nonzero"></path></g></g><g><path d=" M 0.498046875 0.43798828125 L 0.36083984375 0.43798828125 L 0.36083984375 0.3857421875 Q 0.3408203125 0.3857421875 0.32421875 0.388427734375 Q 0.3076171875 0.39111328125 0.295166015625 0.3974609375 Q 0.28271484375 0.40380859375 0.274169921875 0.4150390625 Q 0.265625 0.42626953125 0.26220703125 0.44287109375 L 0.26220703125 0.6259765625 L 0.365234375 0.6259765625 L 0.365234375 0.759765625 L 0.03515625 0.759765625 L 0.03515625 0.6259765625 L 0.11083984375 0.6259765625 L 0.11083984375 0.3876953125 L 0.0361328125 0.3876953125 L 0.0361328125 0.25390625 L 0.26123046875 0.25390625 L 0.26123046875 0.28955078125 Q 0.28271484375 0.2724609375 0.3095703125 0.26318359375 Q 0.33642578125 0.25390625 0.3681640625 0.25390625 Q 0.400390625 0.25390625 0.4345703125 0.25439453125 Q 0.46875 0.2548828125 0.498046875 0.2548828125 L 0.498046875 0.43798828125 M 0.71142578125 0.53857421875 L 0.712890625 0.5537109375 Q 0.71826171875 0.57568359375 0.731201171875 0.59228515625 Q 0.744140625 0.60888671875 0.76171875 0.6201171875 Q 0.779296875 0.63134765625 0.80078125 0.636962890625 Q 0.822265625 0.642578125 0.84423828125 0.642578125 Q 0.8662109375 0.642578125 0.885986328125 0.639892578125 Q 0.90576171875 0.63720703125 0.92431640625 0.632568359375 Q 0.94287109375 0.6279296875 0.96044921875 0.621826171875 Q 0.97802734375 0.61572265625 0.99609375 0.60888671875 L 1.0498046875 0.708984375 Q 1.02197265625 0.72607421875 0.998779296875 0.738037109375 Q 0.9755859375 0.75 0.9521484375 0.7578125 Q 0.9287109375 0.765625 0.90234375 0.769287109375 Q 0.8759765625 0.77294921875 0.8408203125 0.77294921875 Q 0.77490234375 0.77294921875 0.7236328125 0.751220703125 Q 0.67236328125 0.7294921875 0.637451171875 0.6923828125 Q 0.6025390625 0.6552734375 0.584228515625 0.60546875 Q 0.56591796875 0.5556640625 0.56591796875 0.5 Q 0.56591796875 0.4443359375 0.585205078125 0.3955078125 Q 0.6044921875 0.3466796875 0.6396484375 0.310302734375 Q 0.6748046875 0.27392578125 0.7236328125 0.2529296875 Q 0.7724609375 0.23193359375 0.83203125 0.23193359375 Q 0.8916015625 0.23193359375 0.937744140625 0.251708984375 Q 0.98388671875 0.271484375 1.015625 0.306396484375 Q 1.04736328125 0.34130859375 1.064453125 0.388427734375 Q 1.08154296875 0.435546875 1.0830078125 0.48974609375 Q 1.08447265625 0.501953125 1.084716796875 0.513916015625 Q 1.0849609375 0.52587890625 1.083984375 0.53857421875 L 0.71142578125 0.53857421875 M 0.828125 0.35400390625 Q 0.80078125 0.35400390625 0.781494140625 0.360595703125 Q 0.76220703125 0.3671875 0.7490234375 0.378662109375 Q 0.73583984375 0.39013671875 0.72802734375 0.40478515625 Q 0.72021484375 0.41943359375 0.7158203125 0.435546875 L 0.92724609375 0.435546875 Q 0.923828125 0.4189453125 0.91748046875 0.404296875 Q 0.9111328125 0.3896484375 0.89990234375 0.37841796875 Q 0.888671875 0.3671875 0.871337890625 0.360595703125 Q 0.85400390625 0.35400390625 0.828125 0.35400390625 M 1.55517578125 0.6259765625 L 1.62890625 0.6259765625 L 1.595703125 0.51953125 L 1.3681640625 0.51953125 L 1.3349609375 0.6259765625 L 1.4130859375 0.6259765625 L 1.4130859375 0.759765625 L 1.13232421875 0.759765625 L 1.13232421875 0.6259765625 L 1.1875 0.6259765625 L 1.38916015625 0.01953125 L 1.5849609375 0.01953125 L 1.7822265625 0.6259765625 L 1.8359375 0.6259765625 L 1.8359375 0.759765625 L 1.55517578125 0.759765625 L 1.55517578125 0.6259765625 M 1.40673828125 0.39453125 L 1.55615234375 0.39453125 L 1.48095703125 0.15380859375 L 1.40673828125 0.39453125 M 1.88623046875 0.01953125 L 2.17041015625 0.01953125 Q 2.22119140625 0.01953125 2.267822265625 0.03271484375 Q 2.314453125 0.0458984375 2.354736328125 0.06982421875 Q 2.39501953125 0.09375 2.427978515625 0.127197265625 Q 2.4609375 0.16064453125 2.484375 0.20166015625 Q 2.5078125 0.24267578125 2.5205078125 0.2900390625 Q 2.533203125 0.33740234375 2.533203125 0.388671875 Q 2.533203125 0.43994140625 2.5205078125 0.4873046875 Q 2.5078125 0.53466796875 2.484375 0.575927734375 Q 2.4609375 0.6171875 2.427978515625 0.651123046875 Q 2.39501953125 0.68505859375 2.354736328125 0.709228515625 Q 2.314453125 0.7333984375 2.267822265625 0.74658203125 Q 2.22119140625 0.759765625 2.17041015625 0.759765625 L 1.88623046875 0.759765625 L 1.88623046875 0.6259765625 L 1.9453125 0.6259765625 L 1.9453125 0.15380859375 L 1.88623046875 0.15380859375 L 1.88623046875 0.01953125 M 2.107421875 0.15380859375 L 2.107421875 0.6259765625 L 2.16943359375 0.6259765625 Q 2.208984375 0.6259765625 2.244140625 0.607421875 Q 2.279296875 0.5888671875 2.30517578125 0.556884765625 Q 2.3310546875 0.52490234375 2.34619140625 0.481689453125 Q 2.361328125 0.4384765625 2.361328125 0.388671875 Q 2.361328125 0.33935546875 2.34619140625 0.29638671875 Q 2.3310546875 0.25341796875 2.30517578125 0.2216796875 Q 2.279296875 0.18994140625 2.244140625 0.171875 Q 2.208984375 0.15380859375 2.16943359375 0.15380859375 L 2.107421875 0.15380859375" fill="#ffffff" fill-rule="nonzero"></path></g><g><path d=" M 5.012827454052944 0.01953125 L 5.354624329052944 0.01953125 Q 5.411753235302944 0.01953125 5.459604797802944 0.037353515625 Q 5.507456360302944 0.05517578125 5.542124329052944 0.08544921875 Q 5.576792297802944 0.11572265625 5.596323547802944 0.1552734375 Q 5.615854797802944 0.19482421875 5.615854797802944 0.23779296875 Q 5.615854797802944 0.28955078125 5.600473938427944 0.334716796875 Q 5.585093079052944 0.3798828125 5.552866516552944 0.4130859375 Q 5.520639954052944 0.4462890625 5.471323547802944 0.465576171875 Q 5.422007141552944 0.48486328125 5.354624329052944 0.48486328125 L 5.251596985302944 0.48486328125 L 5.251596985302944 0.6259765625 L 5.319468079052944 0.6259765625 L 5.319468079052944 0.759765625 L 5.012827454052944 0.759765625 L 5.012827454052944 0.6259765625 L 5.089487610302944 0.6259765625 L 5.089487610302944 0.15380859375 L 5.012827454052944 0.15380859375 L 5.012827454052944 0.01953125 M 5.251596985302944 0.15380859375 L 5.251596985302944 0.3525390625 L 5.318491516552944 0.3525390625 Q 5.374155579052944 0.3525390625 5.406870422802944 0.3291015625 Q 5.439585266552944 0.3056640625 5.439585266552944 0.2548828125 Q 5.439585266552944 0.20751953125 5.408823547802944 0.1806640625 Q 5.378061829052944 0.15380859375 5.318491516552944 0.15380859375 L 5.251596985302944 0.15380859375 M 5.990366516552944 0.732421875 Q 5.973276672802944 0.7431640625 5.959116516552944 0.750732421875 Q 5.944956360302944 0.75830078125 5.930796204052944 0.762939453125 Q 5.916636047802944 0.767578125 5.901499329052944 0.769775390625 Q 5.886362610302944 0.77197265625 5.868296204052944 0.77197265625 Q 5.822886047802944 0.77197265625 5.786997375927944 0.759521484375 Q 5.751108704052944 0.7470703125 5.726450500927944 0.725341796875 Q 5.701792297802944 0.70361328125 5.688608704052944 0.674072265625 Q 5.675425110302944 0.64453125 5.675425110302944 0.60986328125 Q 5.675425110302944 0.57470703125 5.688852844677944 0.544921875 Q 5.702280579052944 0.51513671875 5.727671204052944 0.493896484375 Q 5.753061829052944 0.47265625 5.789927063427944 0.460693359375 Q 5.826792297802944 0.44873046875 5.874155579052944 0.44873046875 Q 5.908823547802944 0.44873046875 5.937388000927944 0.452392578125 Q 5.965952454052944 0.4560546875 5.990366516552944 0.46142578125 L 5.990366516552944 0.44580078125 Q 5.990366516552944 0.4267578125 5.983042297802944 0.412841796875 Q 5.975718079052944 0.39892578125 5.962534485302944 0.389892578125 Q 5.949350891552944 0.380859375 5.930796204052944 0.376708984375 Q 5.912241516552944 0.37255859375 5.890268860302944 0.37255859375 Q 5.844370422802944 0.37255859375 5.809458313427944 0.381591796875 Q 5.774546204052944 0.390625 5.742319641552944 0.40771484375 L 5.695444641552944 0.31298828125 Q 5.745249329052944 0.27880859375 5.799692688427944 0.2607421875 Q 5.854136047802944 0.24267578125 5.915171204052944 0.24267578125 Q 5.962534485302944 0.24267578125 6.002817688427944 0.253173828125 Q 6.043100891552944 0.263671875 6.071909485302944 0.287353515625 Q 6.100718079052944 0.31103515625 6.117075500927944 0.34912109375 Q 6.133432922802944 0.38720703125 6.133432922802944 0.44189453125 L 6.133432922802944 0.6259765625 L 6.201304016552944 0.6259765625 L 6.201304016552944 0.759765625 L 5.990366516552944 0.759765625 L 5.990366516552944 0.732421875 M 5.879038391552944 0.65673828125 Q 5.913706360302944 0.65673828125 5.942026672802944 0.6455078125 Q 5.970346985302944 0.63427734375 5.990366516552944 0.6181640625 L 5.990366516552944 0.5537109375 L 5.873179016552944 0.5537109375 Q 5.861948547802944 0.5537109375 5.851206360302944 0.55712890625 Q 5.840464172802944 0.560546875 5.831919250927944 0.56689453125 Q 5.823374329052944 0.5732421875 5.818247375927944 0.58251953125 Q 5.813120422802944 0.591796875 5.813120422802944 0.60400390625 Q 5.813120422802944 0.62646484375 5.829477844677944 0.6416015625 Q 5.845835266552944 0.65673828125 5.879038391552944 0.65673828125 M 6.293100891552944 0 L 6.521128235302944 0 L 6.521128235302944 0.6259765625 L 6.599253235302944 0.6259765625 L 6.599253235302944 0.759765625 L 6.293100891552944 0.759765625 L 6.293100891552944 0.6259765625 L 6.371225891552944 0.6259765625 L 6.371225891552944 0.1337890625 L 6.293100891552944 0.1337890625 L 6.293100891552944 0 M 6.684214172802944 0.25390625 L 6.915659485302944 0.25390625 L 6.915659485302944 0.2978515625 Q 6.946909485302944 0.27294921875 6.985971985302944 0.25830078125 Q 7.025034485302944 0.24365234375 7.066538391552944 0.24365234375 Q 7.124155579052944 0.24365234375 7.165415344677944 0.263916015625 Q 7.206675110302944 0.2841796875 7.230112610302944 0.32568359375 Q 7.246225891552944 0.3076171875 7.266489563427944 0.292724609375 Q 7.286753235302944 0.27783203125 7.309702454052944 0.266845703125 Q 7.332651672802944 0.255859375 7.357798157177944 0.249755859375 Q 7.382944641552944 0.24365234375 7.409311829052944 0.24365234375 Q 7.502085266552944 0.24365234375 7.551889954052944 0.294921875 Q 7.601694641552944 0.34619140625 7.601694641552944 0.44482421875 L 7.601694641552944 0.6259765625 L 7.673471985302944 0.6259765625 L 7.673471985302944 0.759765625 L 7.442514954052944 0.759765625 L 7.442514954052944 0.4697265625 Q 7.442514954052944 0.4267578125 7.420298157177944 0.40234375 Q 7.398081360302944 0.3779296875 7.358530579052944 0.3779296875 Q 7.331186829052944 0.3779296875 7.307016907177944 0.390869140625 Q 7.282846985302944 0.40380859375 7.258921204052944 0.435546875 Q 7.259409485302944 0.44091796875 7.259409485302944 0.446533203125 Q 7.259409485302944 0.4521484375 7.259409485302944 0.4580078125 L 7.259409485302944 0.6259765625 L 7.332651672802944 0.6259765625 L 7.332651672802944 0.759765625 L 7.101694641552944 0.759765625 L 7.101694641552944 0.46875 Q 7.101694641552944 0.4482421875 7.095346985302944 0.431640625 Q 7.088999329052944 0.4150390625 7.077768860302944 0.4033203125 Q 7.066538391552944 0.3916015625 7.051157532177944 0.385009765625 Q 7.035776672802944 0.37841796875 7.017221985302944 0.3779296875 Q 6.992807922802944 0.37744140625 6.966684875927944 0.388671875 Q 6.940561829052944 0.39990234375 6.916636047802944 0.43017578125 L 6.916636047802944 0.6259765625 L 6.997690735302944 0.6259765625 L 6.997690735302944 0.759765625 L 6.683237610302944 0.759765625 L 6.683237610302944 0.6259765625 L 6.758432922802944 0.6259765625 L 6.758432922802944 0.3876953125 L 6.684214172802944 0.3876953125 L 6.684214172802944 0.25390625" fill="#ffffff" fill-rule="nonzero"></path></g><g><path d=" M 3.379246978979597 1.8160888671875 L 3.4876861065837637 1.6850667317708332 Q 3.4931792706462637 1.6785563151041667 3.499181061010847 1.6710286458333332 Q 3.50518285137543 1.6635009765625 3.51037083965668 1.6551595052083332 Q 3.51555882793793 1.6468180338541667 3.51891576153168 1.6377644856770832 Q 3.52227269512543 1.6287109375 3.52227269512543 1.6189453125 Q 3.52227269512543 1.6087727864583332 3.5182036847087637 1.5998209635416667 Q 3.514134674292097 1.590869140625 3.50701390606293 1.5841552734375 Q 3.4998931378337637 1.57744140625 3.490025787573347 1.5735758463541667 Q 3.48015843731293 1.5697102864583332 3.468358307104597 1.5697102864583332 Q 3.4577788800212637 1.5697102864583332 3.4483184308025137 1.5730672200520832 Q 3.4388579815837637 1.5764241536458332 3.431737213354597 1.5829345703125 Q 3.42461644512543 1.5894449869791667 3.4202422589275137 1.59910888671875 Q 3.415868072729597 1.6087727864583332 3.41546117168793 1.62138671875 L 3.37884007793793 1.62138671875 Q 3.3790435284587637 1.6020589192708332 3.3863677472087637 1.58568115234375 Q 3.3936919659587637 1.5693033854166667 3.40600072246918 1.5574015299479167 Q 3.418309478979597 1.5454996744791667 3.4345855206462637 1.5388875325520832 Q 3.45086156231293 1.532275390625 3.4687652081462637 1.532275390625 Q 3.4895171612712637 1.532275390625 3.50640355450043 1.5388875325520832 Q 3.523289947729597 1.5454996744791667 3.5352935284587637 1.5570963541666667 Q 3.54729710918793 1.5686930338541667 3.5539092511150137 1.5845621744791667 Q 3.560521393042097 1.6004313151041667 3.560521393042097 1.6189453125 Q 3.560521393042097 1.62626953125 3.5587920636150137 1.63450927734375 Q 3.55706273418793 1.6427490234375 3.552891998510847 1.65220947265625 Q 3.5487212628337637 1.661669921875 3.541905670385847 1.6724527994791667 Q 3.53509007793793 1.6832356770833332 3.52471410137543 1.6956461588541667 L 3.4284820050212637 1.8101888020833332 L 3.56011449200043 1.8101888020833332 L 3.56011449200043 1.84599609375 L 3.379246978979597 1.84599609375 L 3.379246978979597 1.8160888671875 M 3.718907623510847 1.849658203125 Q 3.685948639135847 1.849658203125 3.6637725323650137 1.837451171875 Q 3.64159642559418 1.825244140625 3.628270416479597 1.8038818359375 Q 3.6149444073650137 1.78251953125 3.60924779278168 1.7538330078125 Q 3.603551178198347 1.725146484375 3.603551178198347 1.6921875 Q 3.603551178198347 1.6569905598958332 3.6112822979900137 1.6263712565104167 Q 3.61901341778168 1.595751953125 3.6320342511150137 1.5772379557291667 Q 3.645055084448347 1.5587239583333332 3.664891510229597 1.545703125 Q 3.684727936010847 1.5326822916666667 3.7193145245525137 1.5326822916666667 Q 3.75207005840668 1.5326822916666667 3.773839264135847 1.5430582682291667 Q 3.7956084698650137 1.5534342447916667 3.80974828106293 1.5748982747395832 Q 3.823888092260847 1.5963623046875 3.82958470684418 1.6266764322916667 Q 3.8352813214275137 1.6569905598958332 3.8352813214275137 1.690966796875 Q 3.8352813214275137 1.7241292317708332 3.82958470684418 1.7530192057291667 Q 3.823888092260847 1.7819091796875 3.81035863262543 1.8033732096354167 Q 3.7968291729900137 1.8248372395833332 3.774449615698347 1.8372477213541667 Q 3.75207005840668 1.849658203125 3.718907623510847 1.849658203125 M 3.718907623510847 1.8134440104166667 Q 3.742711334448347 1.8134440104166667 3.75725804668793 1.8037801106770832 Q 3.7718047589275137 1.7941162109375 3.77923070293793 1.7774332682291667 Q 3.786656646948347 1.7607503255208332 3.790318756323347 1.7384724934895832 Q 3.793980865698347 1.7161946614583332 3.793980865698347 1.690966796875 Q 3.793980865698347 1.6667561848958332 3.79113255840668 1.6444783528645832 Q 3.7882842511150137 1.6222005208333332 3.78014623028168 1.6051106770833332 Q 3.772008209448347 1.5880208333333332 3.757359771948347 1.5778483072916667 Q 3.742711334448347 1.56767578125 3.7193145245525137 1.56767578125 Q 3.695103912573347 1.56767578125 3.681065826635847 1.5778483072916667 Q 3.667027740698347 1.5880208333333332 3.6601104229900137 1.6023640950520832 Q 3.65319310528168 1.6167073567708332 3.64922582012543 1.6417317708333332 Q 3.64525853496918 1.6667561848958332 3.64525853496918 1.690966796875 Q 3.64525853496918 1.7161946614583332 3.647801666479597 1.7384724934895832 Q 3.6503447979900137 1.7607503255208332 3.658177643042097 1.7774332682291667 Q 3.66601048809418 1.7941162109375 3.6805572003337637 1.8037801106770832 Q 3.695103912573347 1.8134440104166667 3.718907623510847 1.8134440104166667 M 3.8746489972087637 1.8160888671875 L 3.98308812481293 1.6850667317708332 Q 3.98858128887543 1.6785563151041667 3.9945830792400137 1.6710286458333332 Q 4.000584869604597 1.6635009765625 4.005772857885847 1.6551595052083332 Q 4.010960846167097 1.6468180338541667 4.014317779760847 1.6377644856770832 Q 4.017674713354597 1.6287109375 4.017674713354597 1.6189453125 Q 4.017674713354597 1.6087727864583332 4.01360570293793 1.5998209635416667 Q 4.009536692521263 1.590869140625 4.002415924292097 1.5841552734375 Q 3.99529515606293 1.57744140625 3.9854278058025137 1.5735758463541667 Q 3.9755604555420967 1.5697102864583332 3.9637603253337637 1.5697102864583332 Q 3.95318089825043 1.5697102864583332 3.94372044903168 1.5730672200520832 Q 3.93425999981293 1.5764241536458332 3.9271392315837637 1.5829345703125 Q 3.9200184633545967 1.5894449869791667 3.91564427715668 1.59910888671875 Q 3.9112700909587637 1.6087727864583332 3.9108631899170967 1.62138671875 L 3.8742420961670967 1.62138671875 Q 3.87444554668793 1.6020589192708332 3.88176976543793 1.58568115234375 Q 3.88909398418793 1.5693033854166667 3.9014027406983467 1.5574015299479167 Q 3.9137114972087637 1.5454996744791667 3.92998753887543 1.5388875325520832 Q 3.9462635805420967 1.532275390625 3.96416722637543 1.532275390625 Q 3.98491917950043 1.532275390625 4.001805572729597 1.5388875325520832 Q 4.018691965958763 1.5454996744791667 4.03069554668793 1.5570963541666667 Q 4.042699127417097 1.5686930338541667 4.04931126934418 1.5845621744791667 Q 4.055923411271263 1.6004313151041667 4.055923411271263 1.6189453125 Q 4.055923411271263 1.62626953125 4.05419408184418 1.63450927734375 Q 4.052464752417097 1.6427490234375 4.048294016740013 1.65220947265625 Q 4.04412328106293 1.661669921875 4.037307688615013 1.6724527994791667 Q 4.030492096167097 1.6832356770833332 4.020116119604597 1.6956461588541667 L 3.92388402325043 1.8101888020833332 L 4.055516510229597 1.8101888020833332 L 4.055516510229597 1.84599609375 L 3.8746489972087637 1.84599609375 L 3.8746489972087637 1.8160888671875 M 4.099766998510847 1.7247395833333332 L 4.209426829240013 1.5375651041666667 L 4.252761790177513 1.5375651041666667 L 4.148391672990013 1.7218912760416667 L 4.227330475073347 1.7218912760416667 L 4.227330475073347 1.6710286458333332 L 4.26720677715668 1.6681803385416667 L 4.26720677715668 1.7218912760416667 L 4.313186594865013 1.7218912760416667 L 4.313186594865013 1.756884765625 L 4.26720677715668 1.756884765625 L 4.26720677715668 1.8110026041666667 L 4.29772435528168 1.8110026041666667 L 4.29772435528168 1.84599609375 L 4.19762669903168 1.84599609375 L 4.19762669903168 1.8110026041666667 L 4.227330475073347 1.8110026041666667 L 4.227330475073347 1.756884765625 L 4.09936009746918 1.756884765625 L 4.099766998510847 1.7247395833333332" fill="#fbe5c1" fill-rule="nonzero"></path></g></g><defs><clipPath id="SvgjsClipPath18094"><path d=" M 2.66201171875 -0.25932617187499996 h 2.195639954052945 v 1.2916015625 h -2.195639954052945 Z"></path></clipPath><clipPath id="ae9c039cb-9ff3-4f06-8450-417e0089f96309db0e1d-0c1a-4611-b057-490974e5f4f2"><path d=" M 2.66201171875 1.0322753906249997 L 4.857657670090601 1.0322753906249997 L 4.857657670090601 -0.2592999700960106 L 2.66201171875 -0.2592999700960106 Z"></path></clipPath><clipPath id="SvgjsClipPath1809209db0e1d-0c1a-4611-b057-490974e5f4f2"><path d=" M 2.66201171875 -0.25932617187499984 L 4.857651672802945 -0.25932617187499984 L 4.857651672802945 1.0322753906249997 L 2.66201171875 1.0322753906249997 Z"></path></clipPath><clipPath id="be9c039cb-9ff3-4f06-8450-417e0089f96309db0e1d-0c1a-4611-b057-490974e5f4f2"><path d=" M 2.66201171875 1.0322753906249997 L 4.857657670090601 1.0322753906249997 L 4.857657670090601 -0.2592999700960106 L 2.66201171875 -0.2592999700960106 Z"></path></clipPath><clipPath id="ce9c039cb-9ff3-4f06-8450-417e0089f96309db0e1d-0c1a-4611-b057-490974e5f4f2"><path d=" M 2.66201171875 1.0322753906249997 L 4.857657670090601 1.0322753906249997 L 4.857657670090601 -0.2592999700960106 L 2.66201171875 -0.2592999700960106 Z"></path></clipPath><clipPath id="de9c039cb-9ff3-4f06-8450-417e0089f96309db0e1d-0c1a-4611-b057-490974e5f4f2"><path d=" M 2.66201171875 1.0322753906249997 L 4.857657670090601 1.0322753906249997 L 4.857657670090601 -0.2592999700960106 L 2.66201171875 -0.2592999700960106 Z"></path></clipPath></defs></svg>